<svg xmlns="http://www.w3.org/2000/svg" viewBox="0 0 1200 340" font-family="Segoe UI, Inter, system-ui, sans-serif">
  <defs>
    <linearGradient id="bg" x1="0" y1="0" x2="1" y2="1">
      <stop offset="0" stop-color="#0a0e17"/>
      <stop offset="0.55" stop-color="#0e1424"/>
      <stop offset="1" stop-color="#0a0e17"/>
    </linearGradient>
    <radialGradient id="glow1" cx="18%" cy="0%" r="60%">
      <stop offset="0" stop-color="#5b8cff" stop-opacity="0.22"/>
      <stop offset="1" stop-color="#5b8cff" stop-opacity="0"/>
    </radialGradient>
    <radialGradient id="glow2" cx="88%" cy="10%" r="55%">
      <stop offset="0" stop-color="#7b5bff" stop-opacity="0.22"/>
      <stop offset="1" stop-color="#7b5bff" stop-opacity="0"/>
    </radialGradient>
    <linearGradient id="title" x1="0" y1="0" x2="1" y2="0">
      <stop offset="0" stop-color="#9db8ff"/>
      <stop offset="0.5" stop-color="#5b8cff"/>
      <stop offset="1" stop-color="#b07bff"/>
    </linearGradient>
    <linearGradient id="sma" x1="0" y1="0" x2="1" y2="0">
      <stop offset="0" stop-color="#f0b90b"/>
      <stop offset="1" stop-color="#b07bff"/>
    </linearGradient>
  </defs>

  <!-- Background -->
  <rect width="1200" height="340" fill="url(#bg)"/>
  <rect width="1200" height="340" fill="url(#glow1)"/>
  <rect width="1200" height="340" fill="url(#glow2)"/>

  <!-- Subtle grid -->
  <g stroke="#2a3450" stroke-width="1" opacity="0.25">
    <line x1="0" y1="85" x2="1200" y2="85"/>
    <line x1="0" y1="170" x2="1200" y2="170"/>
    <line x1="0" y1="255" x2="1200" y2="255"/>
  </g>

  <!-- Decorative candlestick chart -->
  <g>
    <polyline fill="none" stroke="url(#sma)" stroke-width="2.5" opacity="0.85"
      points="690,210 740,196 790,205 840,178 890,165 940,176 990,150 1040,138 1090,150 1140,120"/>
    <g>
      <line x1="700" y1="180" x2="700" y2="250" stroke="#2ebd85" stroke-width="2"/>
      <rect x="692" y="200" width="16" height="38" rx="2" fill="#2ebd85"/>
      <line x1="745" y1="170" x2="745" y2="240" stroke="#f6465d" stroke-width="2"/>
      <rect x="737" y="188" width="16" height="34" rx="2" fill="#f6465d"/>
      <line x1="790" y1="165" x2="790" y2="235" stroke="#2ebd85" stroke-width="2"/>
      <rect x="782" y="185" width="16" height="40" rx="2" fill="#2ebd85"/>
      <line x1="835" y1="150" x2="835" y2="215" stroke="#2ebd85" stroke-width="2"/>
      <rect x="827" y="165" width="16" height="38" rx="2" fill="#2ebd85"/>
      <line x1="880" y1="140" x2="880" y2="205" stroke="#f6465d" stroke-width="2"/>
      <rect x="872" y="158" width="16" height="32" rx="2" fill="#f6465d"/>
      <line x1="925" y1="150" x2="925" y2="210" stroke="#2ebd85" stroke-width="2"/>
      <rect x="917" y="168" width="16" height="34" rx="2" fill="#2ebd85"/>
      <line x1="970" y1="120" x2="970" y2="185" stroke="#2ebd85" stroke-width="2"/>
      <rect x="962" y="138" width="16" height="38" rx="2" fill="#2ebd85"/>
      <line x1="1015" y1="115" x2="1015" y2="175" stroke="#f6465d" stroke-width="2"/>
      <rect x="1007" y="130" width="16" height="30" rx="2" fill="#f6465d"/>
      <line x1="1060" y1="105" x2="1060" y2="165" stroke="#2ebd85" stroke-width="2"/>
      <rect x="1052" y="120" width="16" height="36" rx="2" fill="#2ebd85"/>
      <line x1="1105" y1="95" x2="1105" y2="150" stroke="#2ebd85" stroke-width="2"/>
      <rect x="1097" y="108" width="16" height="34" rx="2" fill="#2ebd85"/>
    </g>
    <!-- BUY / SELL markers -->
    <g font-size="12" font-weight="700">
      <path d="M700,255 l-6,10 h12 z" fill="#2ebd85"/>
      <text x="700" y="285" fill="#2ebd85" text-anchor="middle">BUY</text>
      <path d="M880,125 l-6,-10 h12 z" fill="#f6465d"/>
      <text x="880" y="118" fill="#f6465d" text-anchor="middle">SELL</text>
    </g>
  </g>

  <!-- Brand -->
  <g>
    <rect x="60" y="118" width="64" height="64" rx="16" fill="#5b8cff"/>
    <rect x="60" y="118" width="64" height="64" rx="16" fill="#7b5bff" opacity="0.35"/>
    <!-- Drawn candlestick logo -->
    <g stroke="#ffffff" stroke-width="2.2">
      <line x1="82" y1="132" x2="82" y2="168"/>
      <line x1="102" y1="138" x2="102" y2="172"/>
    </g>
    <rect x="77" y="140" width="10" height="20" rx="2" fill="#ffffff"/>
    <rect x="97" y="146" width="10" height="16" rx="2" fill="#ffffff" opacity="0.85"/>

    <text x="142" y="150" font-size="44" font-weight="800" fill="url(#title)">Prompt-to-Code</text>
    <text x="144" y="186" font-size="19" fill="#aab6cc">Natural language to executable trading strategy, backtested on real data</text>

    <!-- Tags -->
    <g font-size="13" font-weight="600">
      <rect x="144" y="212" width="118" height="28" rx="14" fill="#5b8cff" opacity="0.16"/>
      <text x="203" y="231" fill="#9db8ff" text-anchor="middle">AI / Gemini</text>
      <rect x="272" y="212" width="96" height="28" rx="14" fill="#2ebd85" opacity="0.16"/>
      <text x="320" y="231" fill="#2ebd85" text-anchor="middle">Backtest</text>
      <rect x="378" y="212" width="150" height="28" rx="14" fill="#b07bff" opacity="0.16"/>
      <text x="453" y="231" fill="#c3b0ff" text-anchor="middle">BIST + Commodities</text>
    </g>
  </g>
</svg>
