<svg xmlns="http://www.w3.org/2000/svg" viewBox="0 0 1200 720" font-family="Inter, Segoe UI, system-ui, sans-serif">
  <defs>
    <linearGradient id="pbg" x1="0" y1="0" x2="1" y2="1">
      <stop offset="0" stop-color="#070b16"/><stop offset="1" stop-color="#04060d"/>
    </linearGradient>
    <radialGradient id="pg1" cx="12%" cy="0%" r="55%">
      <stop offset="0" stop-color="#4d7cfe" stop-opacity="0.18"/><stop offset="1" stop-color="#4d7cfe" stop-opacity="0"/>
    </radialGradient>
    <radialGradient id="pg2" cx="92%" cy="6%" r="50%">
      <stop offset="0" stop-color="#a855f7" stop-opacity="0.16"/><stop offset="1" stop-color="#a855f7" stop-opacity="0"/>
    </radialGradient>
    <linearGradient id="ptitle" x1="0" y1="0" x2="1" y2="0">
      <stop offset="0" stop-color="#cfe0ff"/><stop offset="1" stop-color="#a855f7"/>
    </linearGradient>
    <linearGradient id="pline" x1="0" y1="0" x2="1" y2="0">
      <stop offset="0" stop-color="#4d7cfe"/><stop offset="1" stop-color="#a855f7"/>
    </linearGradient>
    <linearGradient id="plg" x1="0" y1="0" x2="1" y2="1">
      <stop offset="0" stop-color="#0a1124"/><stop offset="1" stop-color="#0a0716"/>
    </linearGradient>
    <linearGradient id="prun" x1="0" y1="0" x2="1" y2="1">
      <stop offset="0" stop-color="#4d7cfe"/><stop offset="1" stop-color="#a855f7"/>
    </linearGradient>
  </defs>

  <rect width="1200" height="720" fill="url(#pbg)"/>
  <rect width="1200" height="720" fill="url(#pg1)"/>
  <rect width="1200" height="720" fill="url(#pg2)"/>
  <g stroke="#ffffff" stroke-width="1" opacity="0.03">
    <line x1="300" y1="0" x2="300" y2="720"/><line x1="600" y1="0" x2="600" y2="720"/><line x1="900" y1="0" x2="900" y2="720"/>
  </g>

  <!-- Header / logo -->
  <rect x="40" y="30" width="46" height="46" fill="url(#plg)"/>
  <rect x="40" y="30" width="46" height="46" fill="none" stroke="url(#pline)" stroke-width="1.6"/>
  <rect x="40" y="30" width="46" height="2.5" fill="#38e1ff"/>
  <path d="M50 44 L57 53 L50 62" fill="none" stroke="#38e1ff" stroke-width="2.6" stroke-linecap="square"/>
  <rect x="62" y="55" width="4" height="9" fill="#4d7cfe"/><rect x="69" y="49" width="4" height="15" fill="#a855f7"/><rect x="76" y="45" width="4" height="19" fill="#38e1ff"/>
  <text x="100" y="52" font-size="22" font-weight="800" fill="url(#ptitle)" letter-spacing="-0.5">Prompt-to-Code · Strategy Backtest</text>
  <text x="101" y="73" font-size="12.5" fill="#7c8aa6">Describe a strategy in plain language — parsed into rules and backtested. English &amp; Turkish.</text>
  <g font-family="JetBrains Mono, monospace">
    <rect x="1058" y="36" width="102" height="28" fill="rgba(8,12,22,0.6)" stroke="#ffffff" stroke-opacity="0.08"/>
    <circle cx="1076" cy="50" r="3.5" fill="#2ebd85"/>
    <text x="1088" y="54" font-size="11" fill="#7c8aa6" letter-spacing="1">LIVE</text>
  </g>

  <!-- Composer -->
  <rect x="40" y="96" width="1120" height="92" fill="rgba(12,17,30,0.55)" stroke="#ffffff" stroke-opacity="0.07"/>
  <rect x="40" y="96" width="1120" height="1.5" fill="url(#pline)"/>
  <rect x="58" y="116" width="880" height="48" fill="#04060d" stroke="#4d7cfe" stroke-opacity="0.4"/>
  <path d="M76 132 L83 140 L76 148" fill="none" stroke="#4d7cfe" stroke-width="2.2" stroke-linecap="square"/>
  <line x1="88" y1="148" x2="98" y2="148" stroke="#4d7cfe" stroke-width="2.2"/>
  <text x="110" y="145" font-size="14.5" fill="#cfd8e6">Buy THYAO when RSI drops below 35</text>
  <rect x="952" y="116" width="190" height="48" fill="url(#prun)"/>
  <text x="1047" y="145" font-size="12.5" font-weight="700" fill="#fff" text-anchor="middle" letter-spacing="2" font-family="JetBrains Mono, monospace">RUN</text>
  <g font-family="JetBrains Mono, monospace" font-size="11">
    <text x="58" y="180" fill="#56627d" letter-spacing="1">TRY</text>
    <rect x="92" y="170" width="170" height="13" fill="#4d7cfe" opacity="0.10"/>
    <rect x="270" y="170" width="170" height="13" fill="#4d7cfe" opacity="0.10"/>
    <rect x="448" y="170" width="155" height="13" fill="#4d7cfe" opacity="0.10"/>
  </g>

  <!-- Chart card -->
  <rect x="40" y="208" width="790" height="478" fill="rgba(12,17,30,0.55)" stroke="#ffffff" stroke-opacity="0.07"/>
  <rect x="40" y="208" width="790" height="1.5" fill="url(#pline)"/>
  <text x="62" y="240" font-size="11" letter-spacing="1.5" fill="#7c8aa6" font-weight="700" font-family="JetBrains Mono, monospace">CHART</text>
  <g font-family="JetBrains Mono, monospace" font-size="10.5" fill="#7c8aa6">
    <rect x="556" y="231" width="12" height="2" fill="#ffb454"/><text x="574" y="238">SMA50</text>
    <rect x="628" y="231" width="12" height="2" fill="#a855f7"/><text x="646" y="238">SMA200</text>
  </g>
  <rect x="700" y="224" width="114" height="24" fill="none" stroke="#ffffff" stroke-opacity="0.08"/>
  <rect x="700" y="224" width="64" height="24" fill="#4d7cfe" opacity="0.2"/>
  <text x="732" y="240" font-size="10.5" fill="#ffffff" text-anchor="middle" font-weight="600">Price</text>
  <text x="789" y="240" font-size="10.5" fill="#7c8aa6" text-anchor="middle">Equity</text>

  <g stroke="#ffffff" stroke-width="1" opacity="0.04">
    <line x1="70" y1="302" x2="790" y2="302"/><line x1="70" y1="392" x2="790" y2="392"/><line x1="70" y1="482" x2="790" y2="482"/><line x1="70" y1="572" x2="790" y2="572"/>
  </g>
  <g font-size="10" fill="#56627d" font-family="JetBrains Mono, monospace">
    <text x="795" y="306">340</text><text x="795" y="396">310</text><text x="795" y="486">285</text><text x="795" y="576">260</text>
  </g>

  <polyline fill="none" stroke="#a855f7" stroke-width="1.6" opacity="0.85"
    points="80,470 150,468 220,460 290,452 360,448 430,452 500,448 570,440 640,432 710,428 780,422"/>
  <polyline fill="none" stroke="#ffb454" stroke-width="1.6" opacity="0.9"
    points="80,486 150,470 220,452 290,470 360,492 430,470 500,440 570,420 640,408 710,430 780,440"/>

  <g stroke-width="1.6">
    <line x1="80" y1="455" x2="80" y2="505" stroke="#2ebd85"/><rect x="74" y="470" width="12" height="26" fill="#2ebd85"/>
    <line x1="110" y1="448" x2="110" y2="498" stroke="#f6465d"/><rect x="104" y="460" width="12" height="24" fill="#f6465d"/>
    <line x1="140" y1="500" x2="140" y2="552" stroke="#f6465d"/><rect x="134" y="512" width="12" height="28" fill="#f6465d"/>
    <line x1="170" y1="495" x2="170" y2="548" stroke="#2ebd85"/><rect x="164" y="510" width="12" height="26" fill="#2ebd85"/>
    <line x1="200" y1="470" x2="200" y2="520" stroke="#2ebd85"/><rect x="194" y="482" width="12" height="30" fill="#2ebd85"/>
    <line x1="230" y1="455" x2="230" y2="505" stroke="#2ebd85"/><rect x="224" y="466" width="12" height="30" fill="#2ebd85"/>
    <line x1="260" y1="448" x2="260" y2="498" stroke="#f6465d"/><rect x="254" y="460" width="12" height="26" fill="#f6465d"/>
    <line x1="290" y1="470" x2="290" y2="525" stroke="#f6465d"/><rect x="284" y="486" width="12" height="30" fill="#f6465d"/>
    <line x1="320" y1="490" x2="320" y2="545" stroke="#f6465d"/><rect x="314" y="505" width="12" height="32" fill="#f6465d"/>
    <line x1="350" y1="500" x2="350" y2="556" stroke="#2ebd85"/><rect x="344" y="516" width="12" height="30" fill="#2ebd85"/>
    <line x1="380" y1="478" x2="380" y2="532" stroke="#2ebd85"/><rect x="374" y="492" width="12" height="32" fill="#2ebd85"/>
    <line x1="410" y1="465" x2="410" y2="515" stroke="#f6465d"/><rect x="404" y="478" width="12" height="26" fill="#f6465d"/>
    <line x1="440" y1="470" x2="440" y2="522" stroke="#2ebd85"/><rect x="434" y="484" width="12" height="30" fill="#2ebd85"/>
    <line x1="470" y1="448" x2="470" y2="500" stroke="#2ebd85"/><rect x="464" y="460" width="12" height="32" fill="#2ebd85"/>
    <line x1="500" y1="430" x2="500" y2="482" stroke="#2ebd85"/><rect x="494" y="442" width="12" height="30" fill="#2ebd85"/>
    <line x1="530" y1="420" x2="530" y2="470" stroke="#f6465d"/><rect x="524" y="432" width="12" height="26" fill="#f6465d"/>
    <line x1="560" y1="400" x2="560" y2="452" stroke="#2ebd85"/><rect x="554" y="412" width="12" height="30" fill="#2ebd85"/>
    <line x1="590" y1="388" x2="590" y2="440" stroke="#2ebd85"/><rect x="584" y="400" width="12" height="30" fill="#2ebd85"/>
    <line x1="620" y1="395" x2="620" y2="445" stroke="#f6465d"/><rect x="614" y="408" width="12" height="26" fill="#f6465d"/>
    <line x1="650" y1="378" x2="650" y2="428" stroke="#2ebd85"/><rect x="644" y="390" width="12" height="30" fill="#2ebd85"/>
    <line x1="680" y1="360" x2="680" y2="412" stroke="#2ebd85"/><rect x="674" y="372" width="12" height="32" fill="#2ebd85"/>
    <line x1="710" y1="372" x2="710" y2="424" stroke="#f6465d"/><rect x="704" y="386" width="12" height="28" fill="#f6465d"/>
    <line x1="740" y1="392" x2="740" y2="448" stroke="#f6465d"/><rect x="734" y="406" width="12" height="30" fill="#f6465d"/>
    <line x1="770" y1="400" x2="770" y2="455" stroke="#2ebd85"/><rect x="764" y="414" width="12" height="30" fill="#2ebd85"/>
  </g>

  <g font-size="11" font-weight="700" font-family="JetBrains Mono, monospace">
    <path d="M170,560 l-7,12 h14 z" fill="#2ebd85"/><text x="170" y="590" fill="#2ebd85" text-anchor="middle">BUY</text>
    <path d="M350,572 l-7,12 h14 z" fill="#2ebd85"/><text x="350" y="602" fill="#2ebd85" text-anchor="middle">BUY</text>
    <path d="M530,408 l-7,-12 h14 z" fill="#f6465d"/><text x="530" y="400" fill="#f6465d" text-anchor="middle">SELL</text>
    <path d="M710,348 l-7,-12 h14 z" fill="#f6465d"/><text x="710" y="340" fill="#f6465d" text-anchor="middle">SELL</text>
  </g>

  <!-- Sidebar -->
  <rect x="846" y="208" width="314" height="300" fill="rgba(12,17,30,0.55)" stroke="#ffffff" stroke-opacity="0.07"/>
  <rect x="846" y="208" width="314" height="1.5" fill="url(#pline)"/>
  <text x="868" y="248" font-size="22" font-weight="700" fill="#e9eef8" font-family="JetBrains Mono, monospace" letter-spacing="0.5">THYAO.IS</text>
  <text x="868" y="268" font-size="10.5" fill="#56627d" font-family="JetBrains Mono, monospace" letter-spacing="0.4">BACKTEST · 2Y · 0.1% COMMISSION</text>
  <rect x="1086" y="226" width="52" height="26" fill="rgba(46,189,133,0.12)" stroke="#2ebd85" stroke-opacity="0.4"/>
  <text x="1112" y="243" font-size="11" font-weight="700" fill="#2ebd85" text-anchor="middle" font-family="JetBrains Mono, monospace" letter-spacing="1">BUY</text>

  <g font-family="JetBrains Mono, monospace">
    <rect x="868" y="288" width="134" height="66" fill="#070b16" stroke="#ffffff" stroke-opacity="0.06"/>
    <text x="884" y="310" font-size="10" fill="#7c8aa6" letter-spacing="0.6">TOTAL P/L</text>
    <text x="884" y="338" font-size="23" font-weight="700" fill="#2ebd85">+39.34%</text>
    <rect x="1006" y="288" width="132" height="66" fill="#070b16" stroke="#ffffff" stroke-opacity="0.06"/>
    <text x="1022" y="310" font-size="10" fill="#7c8aa6" letter-spacing="0.6">WIN RATE</text>
    <text x="1022" y="338" font-size="23" font-weight="700" fill="#e9eef8">80%</text>
    <rect x="868" y="356" width="134" height="66" fill="#070b16" stroke="#ffffff" stroke-opacity="0.06"/>
    <text x="884" y="378" font-size="10" fill="#7c8aa6" letter-spacing="0.6">MAX DRAWDOWN</text>
    <text x="884" y="406" font-size="23" font-weight="700" fill="#f6465d">-21.07%</text>
    <rect x="1006" y="356" width="132" height="66" fill="#070b16" stroke="#ffffff" stroke-opacity="0.06"/>
    <text x="1022" y="378" font-size="10" fill="#7c8aa6" letter-spacing="0.6">TRADES</text>
    <text x="1022" y="406" font-size="23" font-weight="700" fill="#e9eef8">5</text>
    <rect x="868" y="424" width="270" height="58" fill="#070b16" stroke="#ffffff" stroke-opacity="0.06"/>
    <text x="884" y="446" font-size="10" fill="#7c8aa6" letter-spacing="0.6">FINAL BALANCE · START 10,000 TL</text>
    <text x="884" y="470" font-size="18" font-weight="700" fill="#e9eef8">13,933.65 TL</text>
  </g>

  <!-- AI-parsed rule -->
  <rect x="846" y="528" width="314" height="158" fill="rgba(12,17,30,0.55)" stroke="#ffffff" stroke-opacity="0.07"/>
  <rect x="846" y="528" width="314" height="1.5" fill="url(#pline)"/>
  <text x="868" y="556" font-size="10.5" fill="#7c8aa6" font-family="JetBrains Mono, monospace" letter-spacing="1">AI-PARSED RULE</text>
  <rect x="868" y="570" width="270" height="36" fill="#04060d" stroke="#ffffff" stroke-opacity="0.07"/>
  <rect x="868" y="570" width="2" height="36" fill="#4d7cfe"/>
  <rect x="882" y="581" width="40" height="16" fill="#a855f7" opacity="0.16"/>
  <text x="902" y="593" font-size="10.5" fill="#d6bcff" text-anchor="middle" font-weight="600" font-family="JetBrains Mono, monospace">RSI</text>
  <text x="934" y="593" font-size="12" fill="#7c8aa6" font-family="JetBrains Mono, monospace">&lt;</text>
  <text x="950" y="593" font-size="12" fill="#e9eef8" font-weight="700" font-family="JetBrains Mono, monospace">35</text>

  <rect x="868" y="614" width="270" height="36" fill="#04060d" stroke="#ffffff" stroke-opacity="0.07"/>
  <rect x="868" y="614" width="2" height="36" fill="#4d7cfe"/>
  <rect x="882" y="625" width="52" height="16" fill="#a855f7" opacity="0.16"/>
  <text x="908" y="637" font-size="10.5" fill="#d6bcff" text-anchor="middle" font-weight="600" font-family="JetBrains Mono, monospace">price</text>
  <text x="946" y="637" font-size="10.5" fill="#7c8aa6" font-family="JetBrains Mono, monospace">crosses above</text>
  <text x="1050" y="637" font-size="11.5" fill="#e9eef8" font-weight="700" font-family="JetBrains Mono, monospace">SMA_50</text>

  <text x="868" y="672" font-size="10.5" fill="#2ebd85" font-family="JetBrains Mono, monospace">&gt; done · 502 candles · 10 signals</text>
</svg>
