<svg xmlns="http://www.w3.org/2000/svg" viewBox="0 0 1200 720" font-family="Segoe UI, Inter, system-ui, sans-serif">
  <defs>
    <linearGradient id="pbg" x1="0" y1="0" x2="1" y2="1">
      <stop offset="0" stop-color="#0a0e17"/><stop offset="1" stop-color="#0c1120"/>
    </linearGradient>
    <radialGradient id="pglow" cx="15%" cy="0%" r="50%">
      <stop offset="0" stop-color="#5b8cff" stop-opacity="0.12"/>
      <stop offset="1" stop-color="#5b8cff" stop-opacity="0"/>
    </radialGradient>
    <linearGradient id="ptitle" x1="0" y1="0" x2="1" y2="0">
      <stop offset="0" stop-color="#9db8ff"/><stop offset="1" stop-color="#b07bff"/>
    </linearGradient>
    <linearGradient id="prun" x1="0" y1="0" x2="1" y2="1">
      <stop offset="0" stop-color="#5b8cff"/><stop offset="1" stop-color="#7b5bff"/>
    </linearGradient>
  </defs>

  <rect width="1200" height="720" fill="url(#pbg)"/>
  <rect width="1200" height="720" fill="url(#pglow)"/>

  <!-- Header -->
  <rect x="40" y="30" width="44" height="44" rx="12" fill="url(#prun)"/>
  <g stroke="#ffffff" stroke-width="1.8">
    <line x1="56" y1="40" x2="56" y2="64"/><line x1="70" y1="44" x2="70" y2="66"/>
  </g>
  <rect x="52" y="46" width="8" height="13" rx="1.5" fill="#ffffff"/>
  <rect x="66" y="50" width="8" height="11" rx="1.5" fill="#ffffff" opacity="0.85"/>
  <text x="98" y="52" font-size="22" font-weight="800" fill="url(#ptitle)">Prompt-to-Code · Strategy Backtest</text>
  <text x="99" y="73" font-size="13" fill="#8a96ac">Describe a strategy in plain language — parsed into rules and backtested. English &amp; Turkish supported.</text>

  <!-- Composer -->
  <rect x="40" y="96" width="1120" height="92" rx="16" fill="#161b28" stroke="#2a3450" stroke-width="1"/>
  <rect x="58" y="114" width="880" height="46" rx="12" fill="#0a0e17" stroke="#2a3450"/>
  <text x="78" y="142" font-size="14.5" fill="#cfd8e6">Buy THYAO when RSI drops below 35</text>
  <rect x="952" y="114" width="190" height="46" rx="12" fill="url(#prun)"/>
  <text x="1047" y="142" font-size="14.5" font-weight="700" fill="#fff" text-anchor="middle">Run</text>
  <g font-size="12">
    <text x="58" y="178" fill="#8a96ac">Examples:</text>
    <g>
      <rect x="118" y="168" width="160" height="13" rx="7" fill="#5b8cff" opacity="0.12"/>
      <rect x="286" y="168" width="160" height="13" rx="7" fill="#5b8cff" opacity="0.12"/>
      <rect x="454" y="168" width="150" height="13" rx="7" fill="#5b8cff" opacity="0.12"/>
    </g>
  </g>

  <!-- ===== Chart card ===== -->
  <rect x="40" y="206" width="790" height="478" rx="16" fill="#161b28" stroke="#2a3450"/>
  <text x="62" y="238" font-size="12" letter-spacing="0.6" fill="#8a96ac" font-weight="600">CHART</text>
  <rect x="560" y="226" width="14" height="3" rx="1" fill="#f0b90b"/><text x="580" y="234" font-size="11" fill="#8a96ac">SMA50</text>
  <rect x="630" y="226" width="14" height="3" rx="1" fill="#b07bff"/><text x="650" y="234" font-size="11" fill="#8a96ac">SMA200</text>
  <rect x="690" y="222" width="124" height="26" rx="8" fill="#0a0e17"/>
  <rect x="694" y="226" width="74" height="18" rx="6" fill="#5b8cff" opacity="0.18"/>
  <text x="731" y="239" font-size="10.5" fill="#cfe0ff" text-anchor="middle" font-weight="600">Price</text>
  <text x="790" y="239" font-size="10.5" fill="#8a96ac" text-anchor="middle">Equity</text>

  <g stroke="#212a40" stroke-width="1" opacity="0.6">
    <line x1="70" y1="300" x2="790" y2="300"/>
    <line x1="70" y1="390" x2="790" y2="390"/>
    <line x1="70" y1="480" x2="790" y2="480"/>
    <line x1="70" y1="570" x2="790" y2="570"/>
  </g>
  <g font-size="10" fill="#5c6779" text-anchor="start">
    <text x="795" y="304">340</text><text x="795" y="394">310</text>
    <text x="795" y="484">285</text><text x="795" y="574">260</text>
  </g>

  <polyline fill="none" stroke="#b07bff" stroke-width="1.6" opacity="0.9"
    points="80,470 150,468 220,460 290,452 360,448 430,452 500,448 570,440 640,432 710,428 780,422"/>
  <polyline fill="none" stroke="#f0b90b" stroke-width="1.6" opacity="0.95"
    points="80,486 150,470 220,452 290,470 360,492 430,470 500,440 570,420 640,408 710,430 780,440"/>

  <g stroke-width="1.6">
    <line x1="80" y1="455" x2="80" y2="505" stroke="#2ebd85"/><rect x="74" y="470" width="12" height="26" fill="#2ebd85"/>
    <line x1="110" y1="448" x2="110" y2="498" stroke="#f6465d"/><rect x="104" y="460" width="12" height="24" fill="#f6465d"/>
    <line x1="140" y1="500" x2="140" y2="552" stroke="#f6465d"/><rect x="134" y="512" width="12" height="28" fill="#f6465d"/>
    <line x1="170" y1="495" x2="170" y2="548" stroke="#2ebd85"/><rect x="164" y="510" width="12" height="26" fill="#2ebd85"/>
    <line x1="200" y1="470" x2="200" y2="520" stroke="#2ebd85"/><rect x="194" y="482" width="12" height="30" fill="#2ebd85"/>
    <line x1="230" y1="455" x2="230" y2="505" stroke="#2ebd85"/><rect x="224" y="466" width="12" height="30" fill="#2ebd85"/>
    <line x1="260" y1="448" x2="260" y2="498" stroke="#f6465d"/><rect x="254" y="460" width="12" height="26" fill="#f6465d"/>
    <line x1="290" y1="470" x2="290" y2="525" stroke="#f6465d"/><rect x="284" y="486" width="12" height="30" fill="#f6465d"/>
    <line x1="320" y1="490" x2="320" y2="545" stroke="#f6465d"/><rect x="314" y="505" width="12" height="32" fill="#f6465d"/>
    <line x1="350" y1="500" x2="350" y2="556" stroke="#2ebd85"/><rect x="344" y="516" width="12" height="30" fill="#2ebd85"/>
    <line x1="380" y1="478" x2="380" y2="532" stroke="#2ebd85"/><rect x="374" y="492" width="12" height="32" fill="#2ebd85"/>
    <line x1="410" y1="465" x2="410" y2="515" stroke="#f6465d"/><rect x="404" y="478" width="12" height="26" fill="#f6465d"/>
    <line x1="440" y1="470" x2="440" y2="522" stroke="#2ebd85"/><rect x="434" y="484" width="12" height="30" fill="#2ebd85"/>
    <line x1="470" y1="448" x2="470" y2="500" stroke="#2ebd85"/><rect x="464" y="460" width="12" height="32" fill="#2ebd85"/>
    <line x1="500" y1="430" x2="500" y2="482" stroke="#2ebd85"/><rect x="494" y="442" width="12" height="30" fill="#2ebd85"/>
    <line x1="530" y1="420" x2="530" y2="470" stroke="#f6465d"/><rect x="524" y="432" width="12" height="26" fill="#f6465d"/>
    <line x1="560" y1="400" x2="560" y2="452" stroke="#2ebd85"/><rect x="554" y="412" width="12" height="30" fill="#2ebd85"/>
    <line x1="590" y1="388" x2="590" y2="440" stroke="#2ebd85"/><rect x="584" y="400" width="12" height="30" fill="#2ebd85"/>
    <line x1="620" y1="395" x2="620" y2="445" stroke="#f6465d"/><rect x="614" y="408" width="12" height="26" fill="#f6465d"/>
    <line x1="650" y1="378" x2="650" y2="428" stroke="#2ebd85"/><rect x="644" y="390" width="12" height="30" fill="#2ebd85"/>
    <line x1="680" y1="360" x2="680" y2="412" stroke="#2ebd85"/><rect x="674" y="372" width="12" height="32" fill="#2ebd85"/>
    <line x1="710" y1="372" x2="710" y2="424" stroke="#f6465d"/><rect x="704" y="386" width="12" height="28" fill="#f6465d"/>
    <line x1="740" y1="392" x2="740" y2="448" stroke="#f6465d"/><rect x="734" y="406" width="12" height="30" fill="#f6465d"/>
    <line x1="770" y1="400" x2="770" y2="455" stroke="#2ebd85"/><rect x="764" y="414" width="12" height="30" fill="#2ebd85"/>
  </g>

  <!-- BUY / SELL markers -->
  <g font-size="11" font-weight="700">
    <path d="M170,560 l-7,12 h14 z" fill="#2ebd85"/><text x="170" y="590" fill="#2ebd85" text-anchor="middle">BUY</text>
    <path d="M350,572 l-7,12 h14 z" fill="#2ebd85"/><text x="350" y="602" fill="#2ebd85" text-anchor="middle">BUY</text>
    <path d="M530,408 l-7,-12 h14 z" fill="#f6465d"/><text x="530" y="400" fill="#f6465d" text-anchor="middle">SELL</text>
    <path d="M710,348 l-7,-12 h14 z" fill="#f6465d"/><text x="710" y="340" fill="#f6465d" text-anchor="middle">SELL</text>
  </g>

  <!-- ===== Sidebar ===== -->
  <rect x="846" y="206" width="314" height="298" rx="16" fill="#161b28" stroke="#2a3450"/>
  <text x="868" y="246" font-size="20" font-weight="800" fill="#e7edf6">THYAO.IS</text>
  <text x="868" y="266" font-size="11.5" fill="#8a96ac">Backtest · 2 years · 0.1% commission</text>
  <rect x="1086" y="226" width="52" height="24" rx="12" fill="#2ebd85" opacity="0.16"/>
  <text x="1112" y="242" font-size="11.5" font-weight="700" fill="#2ebd85" text-anchor="middle">BUY</text>

  <g>
    <rect x="868" y="286" width="130" height="64" rx="12" fill="#0a0e17" stroke="#212a40"/>
    <text x="882" y="308" font-size="11" fill="#8a96ac">Total P/L</text>
    <text x="882" y="335" font-size="21" font-weight="800" fill="#2ebd85">+39.34%</text>

    <rect x="1008" y="286" width="130" height="64" rx="12" fill="#0a0e17" stroke="#212a40"/>
    <text x="1022" y="308" font-size="11" fill="#8a96ac">Win Rate</text>
    <text x="1022" y="335" font-size="21" font-weight="800" fill="#e7edf6">80%</text>

    <rect x="868" y="360" width="130" height="64" rx="12" fill="#0a0e17" stroke="#212a40"/>
    <text x="882" y="382" font-size="11" fill="#8a96ac">Max Drawdown</text>
    <text x="882" y="409" font-size="21" font-weight="800" fill="#f6465d">-21.07%</text>

    <rect x="1008" y="360" width="130" height="64" rx="12" fill="#0a0e17" stroke="#212a40"/>
    <text x="1022" y="382" font-size="11" fill="#8a96ac">Trades</text>
    <text x="1022" y="409" font-size="21" font-weight="800" fill="#e7edf6">5</text>

    <rect x="868" y="434" width="270" height="54" rx="12" fill="#0a0e17" stroke="#212a40"/>
    <text x="882" y="455" font-size="11" fill="#8a96ac">Final Balance (start 10,000 ₺)</text>
    <text x="882" y="478" font-size="17" font-weight="800" fill="#e7edf6">13,933.65 ₺</text>
  </g>

  <!-- AI-parsed rule -->
  <rect x="846" y="516" width="314" height="168" rx="16" fill="#161b28" stroke="#2a3450"/>
  <text x="868" y="546" font-size="12" fill="#8a96ac">AI-parsed rule</text>
  <rect x="868" y="560" width="270" height="34" rx="9" fill="#0a0e17" stroke="#212a40"/>
  <rect x="880" y="570" width="44" height="15" rx="5" fill="#7b5bff" opacity="0.18"/>
  <text x="902" y="581" font-size="10.5" fill="#c3b0ff" text-anchor="middle" font-weight="600">RSI</text>
  <text x="936" y="581" font-size="12" fill="#8a96ac">&lt;</text>
  <text x="952" y="581" font-size="12" fill="#e7edf6" font-weight="700">35</text>

  <rect x="868" y="602" width="270" height="34" rx="9" fill="#0a0e17" stroke="#212a40"/>
  <rect x="880" y="612" width="56" height="15" rx="5" fill="#7b5bff" opacity="0.18"/>
  <text x="908" y="623" font-size="10.5" fill="#c3b0ff" text-anchor="middle" font-weight="600">price</text>
  <text x="948" y="623" font-size="11" fill="#8a96ac">crosses above</text>
  <text x="1048" y="623" font-size="12" fill="#e7edf6" font-weight="700">SMA_50</text>

  <text x="868" y="664" font-size="11" fill="#2ebd85">Done · 502 candles · 10 signals</text>
</svg>
